<?xml version="1.0" standalone="no"?>
<!DOCTYPE svg PUBLIC "-//W3C//DTD SVG 20010904//EN"
 "http://www.w3.org/TR/2001/REC-SVG-20010904/DTD/svg10.dtd">
<svg version="1.0" xmlns="http://www.w3.org/2000/svg"
 width="128.000000pt" height="128.000000pt" viewBox="0 0 128.000000 128.000000"
 preserveAspectRatio="xMidYMid meet">

<g transform="translate(0.000000,128.000000) scale(0.100000,-0.100000)"
fill="#000000" stroke="none">
<path d="M343 938 c-184 -107 -263 -158 -263 -170 0 -21 15 -31 295 -194 170
-99 228 -128 255 -128 27 0 95 35 288 148 140 82 256 155 259 163 3 8 -1 21
-8 28 -30 29 -504 297 -533 301 -26 4 -74 -20 -293 -148z"/>
<path d="M1128 652 l-28 -17 0 -127 c0 -102 -3 -132 -17 -157 -16 -28 -17 -33
-3 -58 11 -20 25 -29 49 -31 59 -6 91 48 56 94 -11 15 -14 53 -15 167 0 81 -3
147 -7 146 -5 0 -20 -8 -35 -17z"/>
<path d="M260 482 c0 -60 5 -94 14 -108 15 -21 242 -156 285 -169 50 -15 130
-6 183 20 123 62 234 134 246 160 11 25 17 185 7 185 -3 0 -76 -40 -162 -90
-140 -81 -162 -90 -206 -90 -45 0 -66 9 -203 90 -84 50 -155 90 -158 90 -3 0
-6 -39 -6 -88z"/>
</g>
</svg>
